<svg width="120" height="120" viewBox="0 0 120 120" xmlns="http://www.w3.org/2000/svg">
  <!-- Background Circle -->
  <circle cx="60" cy="60" r="58" fill="#2563EB" stroke="#1E40AF" stroke-width="4"/>
  
  <!-- Traffic Light -->
  <rect x="45" y="25" width="30" height="70" rx="15" fill="#1F2937"/>
  
  <!-- Red Light -->
  <circle cx="60" cy="40" r="8" fill="#EF4444"/>
  
  <!-- Yellow Light -->
  <circle cx="60" cy="60" r="8" fill="#F59E0B"/>
  
  <!-- Green Light -->
  <circle cx="60" cy="80" r="8" fill="#10B981"/>
  
  <!-- Camera/Surveillance Element -->
  <rect x="20" y="45" width="25" height="15" rx="7" fill="#374151"/>
  <circle cx="32" cy="52" r="6" fill="#1F2937"/>
  <circle cx="32" cy="52" r="3" fill="#60A5FA"/>
  
  <!-- Road/Path -->
  <path d="M10 100 Q60 85 110 100" stroke="#F3F4F6" stroke-width="8" fill="none"/>
  <path d="M15 105 Q60 90 105 105" stroke="#E5E7EB" stroke-width="4" fill="none"/>
  
  <!-- Vehicle Icon -->
  <rect x="75" y="85" width="20" height="12" rx="6" fill="#F97316"/>
  <circle cx="80" cy="97" r="3" fill="#1F2937"/>
  <circle cx="90" cy="97" r="3" fill="#1F2937"/>
  
  <!-- Surveillance Waves -->
  <path d="M38 45 Q45 40 52 45" stroke="#60A5FA" stroke-width="2" fill="none" opacity="0.7"/>
  <path d="M40 42 Q45 38 50 42" stroke="#60A5FA" stroke-width="1.5" fill="none" opacity="0.5"/>
</svg>